<?xml version="1.0" standalone="no"?>
<!DOCTYPE svg PUBLIC "-//W3C//DTD SVG 20010904//EN" "http://www.w3.org/TR/2001/REC-SVG-20010904/DTD/svg10.dtd">
<svg version="1.0" xmlns="http://www.w3.org/2000/svg"
    width="400.000000pt" height="400.000000pt" viewBox="0 0 400.000000 400.000000"
    preserveAspectRatio="xMidYMid meet">

    <g transform="translate(0.000000,400.000000) scale(0.100000,-0.100000)"
        fill="#ffffff" stroke="none">
        <path
            d="M2005 3840 c-156 -24 -315 -110 -432 -234 -80 -84 -161 -212 -194
-308 -13 -38 -26 -68 -29 -68 -3 0 -29 34 -58 75 -53 77 -64 83 -105 64 -44
-20 -49 -43 -20 -86 63 -93 115 -222 143 -356 7 -35 18 -61 27 -64 18 -7 101
12 159 37 l41 17 6 104 c3 57 12 129 20 160 44 166 144 316 276 413 49 37 154
76 221 83 252 26 546 -206 649 -511 20 -59 47 -77 119 -79 l47 -2 -3 33 c-6
76 -84 258 -157 363 -55 80 -170 194 -252 250 -79 54 -185 94 -289 109 -77 11
-97 11 -169 0z" />
        <path
            d="M1932 3077 c-20 -24 -35 -119 -30 -192 8 -124 72 -226 172 -275 25
-12 103 -35 174 -52 367 -87 475 -127 612 -231 152 -116 291 -298 362 -476
137 -346 88 -697 -137 -978 -132 -165 -290 -278 -507 -364 -59 -23 -288 -81
-398 -101 -111 -19 -384 -16 -488 6 -150 32 -274 79 -404 154 -119 69 -189
122 -286 216 -138 134 -230 283 -274 443 -29 107 -31 296 -4 403 99 395 473
690 874 690 402 -1 785 -277 882 -636 57 -210 30 -409 -75 -549 -116 -155
-297 -249 -480 -249 -127 0 -186 24 -279 118 -112 111 -153 219 -143 368 9
130 86 260 196 330 75 47 119 32 155 -55 21 -52 46 -176 46 -232 0 -47 24 -85
54 -85 22 0 55 47 62 89 12 59 -12 328 -35 403 -34 107 -104 154 -208 138 -60
-10 -96 -27 -178 -85 -250 -177 -364 -474 -286 -749 36 -128 77 -202 161 -287
114 -115 235 -171 402 -189 335 -34 637 145 783 464 47 103 66 185 72 317 12
251 -56 473 -204 667 -254 332 -728 517 -1144 446 -482 -83 -825 -409 -904
-859 -19 -112 -19 -268 0 -380 54 -309 264 -627 556 -842 110 -81 136 -97 247
-153 253 -127 582 -184 862 -150 754 93 1243 473 1383 1075 27 116 28 331 3
450 -67 316 -244 597 -491 780 -181 134 -346 194 -630 230 -193 24 -251 41
-303 89 -53 48 -79 140 -62 223 9 41 9 57 0 68 -16 19 -94 20 -108 2z" />
    </g>
</svg>