<?xml version="1.0" standalone="no"?>
<!DOCTYPE svg PUBLIC "-//W3C//DTD SVG 20010904//EN"
 "http://www.w3.org/TR/2001/REC-SVG-20010904/DTD/svg10.dtd">
<svg version="1.0" xmlns="http://www.w3.org/2000/svg"
 width="96.000000pt" height="96.000000pt" viewBox="0 0 96.000000 96.000000"
 preserveAspectRatio="xMidYMid meet">

<g transform="translate(0.000000,96.000000) scale(0.100000,-0.100000)"
fill="#000000" stroke="none">
<path d="M270 825 c0 -12 -13 -15 -60 -15 l-60 0 0 -330 0 -330 330 0 330 0 0
330 0 330 -60 0 c-47 0 -60 3 -60 15 0 10 -10 15 -30 15 -20 0 -30 -5 -30 -15
0 -13 -23 -15 -150 -15 -127 0 -150 2 -150 15 0 10 -10 15 -30 15 -20 0 -30
-5 -30 -15z m0 -90 c0 -10 10 -15 30 -15 20 0 30 5 30 15 0 13 23 15 150 15
127 0 150 -2 150 -15 0 -10 10 -15 30 -15 20 0 30 5 30 15 0 10 10 15 30 15
27 0 30 -3 30 -30 l0 -30 -270 0 -270 0 0 30 c0 27 3 30 30 30 20 0 30 -5 30
-15z m480 -315 l0 -210 -270 0 -270 0 0 210 0 210 270 0 270 0 0 -210z"/>
<path d="M390 540 c0 -27 3 -30 30 -30 27 0 30 3 30 30 0 27 -3 30 -30 30 -27
0 -30 -3 -30 -30z"/>
<path d="M510 540 c0 -27 3 -30 30 -30 27 0 30 3 30 30 0 27 -3 30 -30 30 -27
0 -30 -3 -30 -30z"/>
<path d="M630 540 c0 -27 3 -30 30 -30 27 0 30 3 30 30 0 27 -3 30 -30 30 -27
0 -30 -3 -30 -30z"/>
<path d="M270 420 c0 -27 3 -30 30 -30 27 0 30 3 30 30 0 27 -3 30 -30 30 -27
0 -30 -3 -30 -30z"/>
<path d="M390 420 c0 -27 3 -30 30 -30 27 0 30 3 30 30 0 27 -3 30 -30 30 -27
0 -30 -3 -30 -30z"/>
<path d="M510 420 c0 -27 3 -30 30 -30 27 0 30 3 30 30 0 27 -3 30 -30 30 -27
0 -30 -3 -30 -30z"/>
<path d="M630 420 c0 -27 3 -30 30 -30 27 0 30 3 30 30 0 27 -3 30 -30 30 -27
0 -30 -3 -30 -30z"/>
<path d="M270 300 c0 -27 3 -30 30 -30 27 0 30 3 30 30 0 27 -3 30 -30 30 -27
0 -30 -3 -30 -30z"/>
<path d="M390 300 c0 -27 3 -30 30 -30 27 0 30 3 30 30 0 27 -3 30 -30 30 -27
0 -30 -3 -30 -30z"/>
<path d="M510 300 c0 -27 3 -30 30 -30 27 0 30 3 30 30 0 27 -3 30 -30 30 -27
0 -30 -3 -30 -30z"/>
</g>
</svg>
