<svg id="Layer_1" data-name="Layer 1" xmlns="http://www.w3.org/2000/svg" viewBox="0 0 2500 2500"><defs><style>.cls-1{fill:#f93;}.cls-2{fill:#030202;}.cls-3{fill:#fc9;}.cls-4{fill:#393;}.cls-5{fill:#090807;}</style></defs><path class="cls-1" d="M2500,0H0V2500H490c.56-16.91.62-33.85,1.79-50.72,3.64-52.74,7.3-105.48,11.7-158.16,4.85-58,14.06-115.48,22.81-173A1358.3,1358.3,0,0,1,565,1942.86q29-99.66,67.7-196c6-14.78,12.31-29.4,19-45.4-3.58-4.27-7.43-9.16-11.59-13.77C596.19,1639.19,557,1587.13,524,1530.6a794.8,794.8,0,0,1-76.62-178.15,852.48,852.48,0,0,1-27-129.75c-2.54-19.42-3.46-39.08-4.52-58.66-.91-16.94-1.85-34-1.24-50.87,1.06-29.21,3-58.4,5.12-87.55,3-41.26,10.73-81.74,21.83-121.56C463,827.33,498,757.27,544.55,692.72c34.71-48.13,75.67-90.17,121.35-127.83,52.79-43.54,109-82,170.05-113a762.49,762.49,0,0,1,118-48c24.08-7.49,48.39-14.42,72.9-20.3,20.33-4.88,41.15-7.73,61.7-11.72,35.38-6.85,71.19-9.24,107.1-10.17,31.28-.81,62.59-1.81,93.85-1.12,25.55.56,51.15,2.61,76.55,5.53,60.44,6.93,120.7,15,179.94,29.62,71.92,17.73,141.35,42,206.89,76.75a762.37,762.37,0,0,1,122.18,80.79c68.14,55.06,122.87,121.63,169,195.5,33,53,58.17,109.75,76.28,169.61a729.86,729.86,0,0,1,25.12,115.94c4.22,32,7.38,64.11,6.89,96.49-.34,22.93.87,45.94-.6,68.78-2,31.13-4.39,62.33-11.31,92.88-6.25,27.53-11.62,55.36-19.77,82.34a885.13,885.13,0,0,1-30.47,84.18c-31.81,76.35-75.66,145.77-126.27,210.85-40.33,51.87-84.6,100.27-135.18,142.52-9.71,8.11-19.63,16-29.83,23.46-5.54,4.06-7,8.19-5.79,15.15,8.46,46.81,17.27,93.58,24.2,140.63,7.22,49,12.71,98.33,18.45,147.57,3.38,29,6,58.14,8.51,87.25,2.41,27.81,4.4,55.66,6.32,83.51q3.42,49.7,6.37,99.43c1.81,30.19,3.36,60.41,5,90.61h638Z"/><path class="cls-1" d="M686.58,1834.45c-10.25,30.85-20.67,61.63-30.51,92.61-14.19,44.68-26.77,89.82-35.64,135.89-5.85,30.35-11.18,60.8-16.22,91.29-3.3,20-5.73,40.08-8.45,60.15-2.55,18.76-5.21,37.51-7.4,56.31-1.88,16.14-3.37,32.32-4.67,48.51-1.44,17.87-2.41,35.77-3.68,53.65-1.71,24.14-3.66,48.27-5.22,72.42-1.17,18.22-1.88,36.48-2.79,54.72h70c-.11-31.24-.65-62.5-.21-93.73q.8-55.92,3-111.81c1.42-36.23,3.56-72.44,5.63-108.65,1-18.24,2.45-36.47,4-54.68,1.71-19.85,3.93-39.66,5.68-59.52,1.67-18.83,2.54-37.75,4.6-56.54q4.88-44.6,10.94-89.08c4.49-33.07,7.8-66.35,16-98.82.06-.25-.27-.59-1-2A99.17,99.17,0,0,0,686.58,1834.45Z"/><path class="cls-1" d="M1770.66,2363.66c-1.94-30.83-4.1-61.65-6.3-92.47-1.49-20.87-2.75-41.77-4.93-62.57-3.44-32.73-7.39-65.41-11.42-98.08-4.68-37.91-9.7-75.78-14.51-113.68-.69-5.37-1.09-10.77-1.63-16.16a255,255,0,0,0-4.35,33.67c-1.28,16.52-2.35,33.06-3.57,49.59-1.79,24.44-3.82,48.87-5.38,73.33-.72,11.28-.31,22.63-.87,33.92-.89,17.9-2.24,35.78-3.22,53.67-.25,4.63.45,9.32.2,13.95-.63,11.58-1.84,23.13-2.29,34.72-.92,23.22-1.6,46.45-2.18,69.68-.71,28.61-1.36,57.21-1.78,85.82-.34,23.64-.3,47.3-.43,70.95h70c-.62-13.9-1.11-27.81-1.88-41.7C1774.38,2426.75,1772.64,2395.2,1770.66,2363.66Z"/><path class="cls-2" d="M490,2500c.56-16.91.62-33.85,1.79-50.72,3.64-52.74,7.3-105.48,11.7-158.16,4.85-58,14.06-115.48,22.81-173A1358.3,1358.3,0,0,1,565,1942.86q29-99.66,67.7-196c6-14.78,12.31-29.4,19-45.4-3.58-4.27-7.43-9.16-11.59-13.77C596.19,1639.19,557,1587.13,524,1530.6a794.8,794.8,0,0,1-76.62-178.15,852.48,852.48,0,0,1-27-129.75c-2.54-19.42-3.46-39.08-4.52-58.66-.91-16.94-1.85-34-1.24-50.87,1.06-29.21,3-58.4,5.12-87.55,3-41.26,10.73-81.74,21.83-121.56C463,827.33,498,757.27,544.55,692.72c34.71-48.13,75.67-90.17,121.35-127.83,52.79-43.54,109-82,170.05-113a762.49,762.49,0,0,1,118-48c24.08-7.49,48.39-14.42,72.9-20.3,20.33-4.88,41.15-7.73,61.7-11.72,35.38-6.85,71.19-9.24,107.1-10.17,31.28-.81,62.59-1.81,93.85-1.12,25.55.56,51.15,2.61,76.55,5.53,60.44,6.93,120.7,15,179.94,29.62,71.92,17.73,141.35,42,206.89,76.75a762.37,762.37,0,0,1,122.18,80.79c68.14,55.06,122.87,121.63,169,195.5,33,53,58.17,109.75,76.28,169.61a729.86,729.86,0,0,1,25.12,115.94c4.22,32,7.38,64.11,6.89,96.49-.34,22.93.87,45.94-.6,68.78-2,31.13-4.39,62.33-11.31,92.88-6.25,27.53-11.62,55.36-19.77,82.34a885.13,885.13,0,0,1-30.47,84.18c-31.81,76.35-75.66,145.77-126.27,210.85-40.33,51.87-84.6,100.27-135.18,142.52-9.71,8.11-19.63,16-29.83,23.46-5.54,4.06-7,8.19-5.79,15.15,8.46,46.81,17.27,93.58,24.2,140.63,7.22,49,12.71,98.33,18.45,147.57,3.38,29,6,58.14,8.51,87.25,2.41,27.81,4.4,55.66,6.32,83.51q3.42,49.7,6.37,99.43c1.81,30.19,3.36,60.41,5,90.61h-84c-.62-13.9-1.11-27.81-1.88-41.7-1.74-31.55-3.48-63.1-5.46-94.64-1.94-30.83-4.1-61.65-6.3-92.47-1.49-20.87-2.75-41.77-4.93-62.57-3.44-32.73-7.39-65.41-11.42-98.08-4.68-37.91-9.7-75.78-14.51-113.68-.69-5.37-1.09-10.77-1.63-16.16a255,255,0,0,0-4.35,33.67c-1.28,16.52-2.35,33.06-3.57,49.59-1.79,24.44-3.82,48.87-5.38,73.33-.72,11.28-.31,22.63-.87,33.92-.89,17.9-2.24,35.78-3.22,53.67-.25,4.63.45,9.32.2,13.95-.63,11.58-1.84,23.13-2.29,34.72-.92,23.22-1.6,46.45-2.18,69.68-.71,28.61-1.36,57.21-1.78,85.82-.34,23.64-.3,47.3-.43,70.95h-78c.09-4,.22-8,.26-12q.65-56.92,1.26-113.85c0-.67,0-1.34,0-2,1.31-42.22,2.54-84.43,4-126.64.51-15,1.58-29.87,2.29-44.81,1.35-28.24,2.55-56.48,4-84.72,1-20.26,1.87-40.53,3.44-60.75,3.29-42.41,7-84.79,10.52-127.19.2-2.48,0-5,0-7.85-1.68.38-2.65.48-3.54.8-24.64,9-49.06,18.61-74,26.77-32.57,10.67-66.17,17.46-100.06,22.25-27.63,3.9-55.39,8-83.22,9.17-51.9,2.26-103.88.47-155.4-6.51-38.86-5.26-77.69-11.41-116.07-19.38a1026.73,1026.73,0,0,1-177.19-53.67c-57.18-23.17-111.67-51.26-162.48-86.34-2.65-1.83-5.59-3.23-9-5.2-4.37,24.23-9.19,47.29-12.57,70.56-6.38,44.06-12.47,88.18-17.66,132.39-3.67,31.22-5.62,62.64-8.39,94-2.54,28.76-5.41,57.5-7.63,86.28-1.1,14.24-.84,28.58-1.59,42.85-1.32,25.17-3,50.32-4.39,75.49q-1.63,30.39-2.75,60.8c-.64,17.61-1.23,35.23-1.21,52.84,0,19.63.75,39.25,1.15,58.87.12,5.94.19,11.89.29,17.83H642c-.11-31.24-.65-62.5-.21-93.73q.8-55.92,3-111.81c1.42-36.23,3.56-72.44,5.63-108.65,1-18.24,2.45-36.47,4-54.68,1.71-19.85,3.93-39.66,5.68-59.52,1.67-18.83,2.54-37.75,4.6-56.54q4.88-44.6,10.94-89.08c4.49-33.07,7.8-66.35,16-98.82.06-.25-.27-.59-1-2a99.17,99.17,0,0,0-4.16,9.25c-10.25,30.85-20.67,61.63-30.51,92.61-14.19,44.68-26.77,89.82-35.64,135.89-5.85,30.35-11.18,60.8-16.22,91.29-3.3,20-5.73,40.08-8.45,60.15-2.55,18.76-5.21,37.51-7.4,56.31-1.88,16.14-3.37,32.32-4.67,48.51-1.44,17.87-2.41,35.77-3.68,53.65-1.71,24.14-3.66,48.27-5.22,72.42-1.17,18.22-1.88,36.48-2.79,54.72Z"/><path class="cls-3" d="M2077.34,1149.49c-1.86,29.5-2.83,59.1-5.8,88.5-4.05,40.1-12.82,79.4-24.76,117.91a766.91,766.91,0,0,1-75.8,168.72,964.94,964.94,0,0,1-80.81,115.1c-50.26,61.33-105.45,117.25-172.42,160.79-39.51,25.69-81,47.13-125.41,62.75-28.18,9.91-56.76,18.71-86.37,23.66-24.56,4.11-49,9.08-73.63,12.7a329.12,329.12,0,0,1-44.68,3.45c-28.29.26-56.67.64-84.88-1.2-30.15-2-60.24-5.76-90.16-10.06-26.62-3.82-53.28-8.21-79.38-14.54-35.81-8.68-71.43-18.47-106.58-29.51A767.93,767.93,0,0,1,858.2,1771.3a733.67,733.67,0,0,1-127.45-97.42,769.47,769.47,0,0,1-79.62-89.43,828.7,828.7,0,0,1-70.91-109.67,755.57,755.57,0,0,1-59.69-146.52c-11.31-38.7-18.86-78.21-24-118.14-2.31-18-2.67-36.36-3.61-54.57-.7-13.62-1.62-27.29-1.2-40.89.8-25.55,1.3-51.08,3.75-76.62,3.91-40.86,10.66-81.1,22.29-120.38,21.28-71.85,55.05-137.46,101.68-196.13a717.27,717.27,0,0,1,51.33-58.39c33.57-33.91,70.89-63.53,110.5-90.14,57.68-38.75,119.07-70,185.2-91.93,35.37-11.7,71.06-22.23,107.73-28.63,25.79-4.5,51.65-8.54,77.83-11.2,43.9-4.45,87.75-3.59,131.62-3.46,25.55.07,51.19,1.7,76.61,4.32,31.34,3.24,62.66,7.38,93.71,12.71a993.68,993.68,0,0,1,112.52,26.46c40.53,12,80,26.47,118.24,44.61,44.26,21,86.38,45.54,125.65,75a639.86,639.86,0,0,1,90.78,82.53A684.43,684.43,0,0,1,1979.65,789c28,46.28,50.51,95.05,66.22,146.86a683.15,683.15,0,0,1,24.17,115C2074.09,1083.63,2077,1116.37,2077.34,1149.49Z"/><path class="cls-4" d="M720,2500c-.1-5.94-.17-11.89-.29-17.83-.4-19.62-1.14-39.24-1.15-58.87,0-17.61.57-35.23,1.21-52.84q1.1-30.42,2.75-60.8c1.35-25.17,3.07-50.32,4.39-75.49.75-14.27.49-28.61,1.59-42.85,2.22-28.78,5.09-57.52,7.63-86.28,2.77-31.33,4.72-62.75,8.39-94,5.19-44.21,11.28-88.33,17.66-132.39,3.38-23.27,8.2-46.33,12.57-70.56,3.46,2,6.4,3.37,9,5.2,50.81,35.08,105.3,63.17,162.48,86.34a1026.73,1026.73,0,0,0,177.19,53.67c38.38,8,77.21,14.12,116.07,19.38,51.52,7,103.5,8.77,155.4,6.51,27.83-1.22,55.59-5.27,83.22-9.17,33.89-4.79,67.49-11.58,100.06-22.25,24.9-8.16,49.32-17.81,74-26.77.89-.32,1.86-.42,3.54-.8,0,2.86.18,5.37,0,7.85-3.5,42.4-7.23,84.78-10.52,127.19-1.57,20.22-2.44,40.49-3.44,60.75-1.4,28.24-2.6,56.48-4,84.72-.71,14.94-1.78,29.86-2.29,44.81-1.44,42.21-2.67,84.42-4,126.64,0,.66,0,1.33,0,2q-.62,56.92-1.26,113.85c0,4-.17,8-.26,12Z"/><path class="cls-5" d="M1991.83,1103.69c0-8.43,0-16.37,0-24.3,0-4.09,1.56-7,5.48-8.6,4.43-1.8,8-.17,10.67,3.09a30.17,30.17,0,0,1,4.66,8.68,454.45,454.45,0,0,1,18.89,71.28,60,60,0,0,1,.44,8,7.16,7.16,0,0,1-5.11,7.69c-3.53,1.23-6.79.33-8.6-3-4.82-9-9.43-18.2-14-27.35a46.13,46.13,0,0,1-1.88-5.61h-9.78q-247,0-494,0c-122.62-.18-245.24-.86-367.86-1.37q-90.95-.37-181.91-.91c-61.27-.34-122.54-.82-183.82-1.09q-93.48-.42-187-.54a33.88,33.88,0,0,0-3.75.5c-2.17,7-4,14.36-6.76,21.39A112.6,112.6,0,0,1,558,1171c-3.73,5.86-9.06,7.24-13.66,5.26-3.86-1.66-7.07-8.16-6.45-13.65a41.74,41.74,0,0,1,1.78-6.75c7.3-25.2,14.31-50.5,22.13-75.54,2.11-6.78,6.15-13.18,10.33-19,3.36-4.69,9.23-3.8,12.6,1,3.51,5,3.3,10.66,2.3,16.33-1.26,7.1-2.6,14.18-4,22,3.39.25,5.93.59,8.47.6,17.34,0,34.67,0,52,0q334.47.43,668.93.91c57,.1,113.94.66,170.9,1.06,39,.27,78,.72,117,.92q139.93.73,279.86,1.23c35.94.08,71.88-.77,107.82-1.23A25.63,25.63,0,0,0,1991.83,1103.69Z"/><path class="cls-2" d="M1116.47,948c.07,24.21-6.68,46-22.66,64.42-7.6,8.74-15.51,17.42-24.34,24.87-20.53,17.31-44.51,23.49-70.91,18.4s-50.07-15.59-68.88-35.3c-37.27-39-38.68-102-4.88-142.35,19-22.69,42.42-36,71.21-39.76,23.11-3,45.29,2.13,65.37,13.61C1098.32,873,1116.21,905.61,1116.47,948Z"/><path class="cls-2" d="M1636.39,953.49c4.19,45.73-41.16,95.85-73.63,105.43-12.84,3.79-25.9,5.07-38.45,2.64-31.51-6.11-59.27-19.57-78.41-46.88A108,108,0,0,1,1426.24,942c1.89-22.15,10.54-42,24.85-59.79,15.56-19.32,34.67-32.21,58.69-36.68,70.53-13.15,127.6,41.12,126.61,104C1636.37,950.82,1636.39,952.16,1636.39,953.49Z"/></svg>