<?xml version="1.0" standalone="no"?>
<!DOCTYPE svg PUBLIC "-//W3C//DTD SVG 20010904//EN" "http://www.w3.org/TR/2001/REC-SVG-20010904/DTD/svg10.dtd">
<svg version="1.0" xmlns="http://www.w3.org/2000/svg" width="96.000000pt" height="96.000000pt" viewBox="0 0 96.000000 96.000000" preserveAspectRatio="xMidYMid meet">

    <g transform="translate(0.000000,96.000000) scale(0.100000,-0.100000)" fill="#000000" stroke="none">
        <path d="M335 861 c-127 -34 -197 -126 -212 -278 -8 -84 9 -145 65 -228 45
-67 47 -74 50 -152 l4 -83 29 0 29 0 0 75 c0 83 -10 115 -63 192 -49 73 -61
114 -54 195 8 92 45 160 106 196 41 24 56 27 136 27 100 0 150 -14 197 -53 35
-30 67 -94 68 -135 0 -16 19 -56 45 -94 25 -37 41 -70 37 -74 -4 -4 -24 -12
-44 -19 -37 -11 -38 -13 -38 -61 0 -87 -38 -129 -115 -129 l-35 0 0 -60 0 -60
30 0 c26 0 30 3 30 29 0 25 5 31 30 36 66 14 120 86 120 159 0 28 4 35 25 40
34 9 65 41 65 69 0 12 -19 51 -43 87 -27 40 -48 87 -56 122 -27 126 -126 196
-287 203 -49 2 -102 1 -119 -4z" />
        <path d="M441 623 c-5 -21 -17 -67 -26 -103 -9 -36 -18 -73 -21 -82 -4 -14 1
-18 25 -18 33 0 29 -8 66 140 9 36 18 73 21 83 4 13 -1 17 -25 17 -27 0 -31
-5 -40 -37z" />
        <path d="M280 585 l-44 -45 47 -47 47 -48 22 22 22 23 -24 25 -23 25 23 25
c23 24 23 25 5 45 -10 11 -21 20 -24 20 -4 0 -27 -20 -51 -45z" />
        <path d="M545 610 c-18 -20 -18 -21 5 -45 l23 -25 -23 -25 -24 -25 22 -23 22
-22 47 48 47 47 -44 45 c-24 25 -47 45 -51 45 -3 0 -14 -9 -24 -20z" />
    </g>
</svg>
