<svg xmlns="http://www.w3.org/2000/svg" x="0px" y="0px" width="64" height="64" viewBox="0 0 172 172" style=" fill:#000000;">
    <g fill="none" fill-rule="nonzero" stroke="none" stroke-width="1" stroke-linecap="butt" stroke-linejoin="miter" stroke-miterlimit="10" stroke-dasharray="" stroke-dashoffset="0" font-family="none" font-weight="none" font-size="none" text-anchor="none" style="mix-blend-mode: normal">
        <path d="M0,172v-172h172v172z" fill="none"></path>
        <g fill="#ecf0f1">
            <path d="M164.08531,95.28531l-16.16531,-27.85594c-3.78937,-31.99469 -20.64,-60.54938 -68.8,-60.54938c-48.16,0 -68.8,32.68 -68.8,68.8c0,14.44531 4.47469,27.86938 12.04,38.87469c7.56531,11.00531 12.04,24.08 12.04,37.49063v16.51469h75.68v-14.79469l10.66938,0.68531c14.78125,1.38406 27.17062,-10.32 27.17062,-25.10125v-18.58406l13.76,-6.88c3.09063,-1.72 4.12531,-5.49594 2.40531,-8.6zM59.51469,87.37063c1.14219,1.53187 0.83313,3.68187 -0.68531,4.82406c-0.61813,0.45688 -1.34375,0.68531 -2.06938,0.68531c-1.04812,0 -2.06937,-0.47031 -2.75469,-1.37062l-11.86531,-15.82938l11.86531,-15.82937c1.14219,-1.505 3.29219,-1.8275 4.81062,-0.68531c1.51844,1.14219 1.84094,3.29219 0.69875,4.82406l-8.77469,11.69062zM89.35938,52.32563l-10.32,48.16c-0.33594,1.6125 -1.77375,2.71437 -3.35938,2.71437c-0.22844,0 -0.48375,-0.02687 -0.72562,-0.08062c-1.85438,-0.38969 -3.03688,-2.21719 -2.63375,-4.085l10.32,-48.16c0.38969,-1.85438 2.20375,-3.03688 4.085,-2.64719c1.85437,0.40313 3.03687,2.23063 2.63375,4.09844zM107.67469,91.50938c-0.67187,0.90031 -1.70656,1.37062 -2.75469,1.37062c-0.72562,0 -1.45125,-0.22844 -2.06937,-0.68531c-1.51844,-1.14219 -1.8275,-3.29219 -0.68531,-4.82406l8.77469,-11.69063l-8.77469,-11.69062c-1.14219,-1.53188 -0.83313,-3.68188 0.68531,-4.82406c1.51844,-1.14219 3.68187,-0.83313 4.82406,0.68531l11.86531,15.82937z"></path>
        </g>
    </g>
</svg>