<svg xmlns="http://www.w3.org/2000/svg" x="0px" y="0px" width="96" height="96" viewBox="0 0 172 172" style=" fill:#000000;">
    <g fill="none" fill-rule="nonzero" stroke="none" stroke-width="1" stroke-linecap="butt" stroke-linejoin="miter" stroke-miterlimit="10" stroke-dasharray="" stroke-dashoffset="0" font-family="none" font-weight="none" font-size="none" text-anchor="none" style="mix-blend-mode: normal">
        <path d="M0,172v-172h172v172z" fill="none"></path>
        <g fill="#000000">
            <path d="M86,26.20313l-2.51953,1.34375l-72.5625,37.625l-9.23828,4.70313l9.07031,4.53516v45.35156c-3.2124,1.86865 -5.375,5.27002 -5.375,9.23828c0,5.9419 4.8081,10.75 10.75,10.75c5.9419,0 10.75,-4.8081 10.75,-10.75c0,-3.96826 -2.1626,-7.36963 -5.375,-9.23828v-39.80859l10.75,5.54297v27.37891c0,2.37256 1.0918,4.51416 2.35156,5.87891c1.25977,1.36474 2.79248,2.18359 4.36719,3.02344c3.17041,1.65869 6.92871,2.83447 11.58984,3.86328c9.32227,2.07861 21.75195,3.35938 35.44141,3.35938c13.68945,0 26.11914,-1.28076 35.44141,-3.35937c4.66114,-1.02881 8.41943,-2.20459 11.58984,-3.86328c1.57471,-0.83984 3.10742,-1.65869 4.36719,-3.02344c1.25977,-1.36474 2.35156,-3.50635 2.35156,-5.87891v-27.37891l21.33203,-10.91797l9.23828,-4.70312l-9.23828,-4.70312l-72.5625,-37.625zM86,38.29688l60.80469,31.57813l-9.57422,4.87109c-1.21777,-1.28076 -2.6875,-2.22558 -4.19922,-3.02344c-3.14941,-1.65869 -6.92871,-2.83447 -11.58984,-3.86328c-9.30127,-2.07861 -21.68896,-3.35937 -35.44141,-3.35937c-13.75244,0 -26.14014,1.28076 -35.44141,3.35938c-4.66113,1.02881 -8.44043,2.20459 -11.58984,3.86328c-1.51172,0.79785 -2.98144,1.74268 -4.19922,3.02344l-9.57422,-4.87109zM86,75.25c13.12256,0 24.92236,1.19678 33.08984,3.02344c4.07324,0.90283 7.34864,1.95264 9.07031,2.85547c0.5459,0.29395 0.62989,0.50391 0.83984,0.67188v20.49219c-2.24658,-0.81885 -4.70312,-1.55371 -7.55859,-2.18359c-9.32227,-2.07861 -21.75195,-3.35937 -35.44141,-3.35937c-13.68945,0 -26.11914,1.28076 -35.44141,3.35938c-2.85547,0.62989 -5.31201,1.36474 -7.55859,2.18359v-20.49219c0.20996,-0.16797 0.29395,-0.37793 0.83984,-0.67187c1.72168,-0.90283 4.99707,-1.95264 9.07031,-2.85547c8.16748,-1.82666 19.96729,-3.02344 33.08984,-3.02344zM86,107.5c13.03857,0 24.90137,1.19678 33.08984,3.02344c3.40137,0.75586 5.54297,1.55371 7.39063,2.35156c-1.84766,0.79785 -3.98926,1.5957 -7.39062,2.35156c-8.18847,1.82666 -20.05127,3.02344 -33.08984,3.02344c-13.03857,0 -24.90136,-1.19678 -33.08984,-3.02344c-3.40136,-0.75586 -5.54297,-1.55371 -7.39062,-2.35156c1.84766,-0.79785 3.98926,-1.5957 7.39063,-2.35156c8.18848,-1.82666 20.05127,-3.02344 33.08984,-3.02344z"></path>
        </g>
    </g>
</svg>