<?xml version="1.0" standalone="no"?>
<!DOCTYPE svg PUBLIC "-//W3C//DTD SVG 20010904//EN"
 "http://www.w3.org/TR/2001/REC-SVG-20010904/DTD/svg10.dtd">
<svg version="1.0" xmlns="http://www.w3.org/2000/svg"
 width="96.000000pt" height="96.000000pt" viewBox="0 0 96.000000 96.000000"
 preserveAspectRatio="xMidYMid meet">

<g transform="translate(0.000000,96.000000) scale(0.100000,-0.100000)"
fill="#f5f5f5" stroke="none">
<path d="M539 747 c-40 -26 -69 -79 -69 -124 0 -38 2 -38 -73 -18 -77 20 -130
48 -183 97 -25 23 -47 39 -50 36 -9 -10 -16 -77 -10 -102 3 -13 18 -39 33 -56
l27 -32 -32 7 c-27 5 -32 4 -32 -12 0 -29 37 -81 72 -103 l33 -20 -28 0 c-27
0 -27 0 -12 -30 17 -34 69 -70 99 -70 15 0 16 -3 6 -14 -16 -20 -84 -45 -145
-54 l-50 -8 60 -24 c50 -20 78 -24 166 -25 102 0 107 1 181 38 126 62 207 176
230 324 8 52 17 75 39 98 37 40 36 46 -3 34 -43 -12 -45 -11 -26 4 9 6 23 24
33 39 l17 27 -42 -16 c-41 -16 -44 -16 -81 5 -51 29 -115 29 -160 -1z"/>
</g>
</svg>
